<svg width="41" height="40" viewBox="0 0 41 40" fill="none" xmlns="http://www.w3.org/2000/svg">
<g clip-path="url(#clip0_0_34)">
<path d="M34.3201 0H5.96031C2.72045 0 0.084671 2.62848 0.084671 5.85938V34.1406C0.084671 37.3715 2.72045 40 5.96031 40H34.3201C37.5599 40 40.1957 37.3715 40.1957 34.1406V5.85938C40.1957 2.62848 37.5599 0 34.3201 0ZM37.8455 34.1406C37.8455 36.0791 36.2639 37.6562 34.3201 37.6562H5.96031C4.01645 37.6562 2.43493 36.0791 2.43493 34.1406V5.85938C2.43493 3.9209 4.01645 2.34375 5.96031 2.34375H34.3201C36.2639 2.34375 37.8455 3.9209 37.8455 5.85938V34.1406Z" fill="#070707" stroke="#070707" stroke-width="0.5"/>
<path d="M18.9651 16.4844C18.9651 13.8995 16.8566 11.7969 14.2646 11.7969H7.21378V28.2031H14.2646C16.8566 28.2031 18.9651 26.1005 18.9651 23.5156C18.9651 22.1167 18.3466 20.8597 17.3685 20C18.3466 19.1403 18.9651 17.8833 18.9651 16.4844ZM16.6148 23.5156C16.6148 24.808 15.5606 25.8594 14.2646 25.8594H9.56404V21.1719H14.2646C15.5606 21.1719 16.6148 22.2232 16.6148 23.5156ZM9.56404 18.8281V14.1406H14.2646C15.5606 14.1406 16.6148 15.192 16.6148 16.4844C16.6148 17.7768 15.5606 18.8281 14.2646 18.8281H9.56404Z" fill="#070707" stroke="#070707" stroke-width="0.5"/>
<path d="M27.191 16.4844C23.9511 16.4844 21.3153 19.1129 21.3153 22.3438C21.3153 25.5746 23.9511 28.2031 27.191 28.2031C29.282 28.2031 31.232 27.081 32.2798 25.2744L30.2454 24.1006C29.6162 25.1855 28.4457 25.8594 27.191 25.8594C25.6587 25.8594 24.352 24.8798 23.8669 23.5156H33.0666V22.3438C33.0666 19.1129 30.4308 16.4844 27.191 16.4844ZM23.8669 21.1719C24.352 19.8077 25.6587 18.8281 27.191 18.8281C28.7232 18.8281 30.0299 19.8077 30.515 21.1719H23.8669Z" fill="#070707" stroke="#070707" stroke-width="0.5"/>
<path d="M22.4904 11.7969H31.8915V14.1406H22.4904V11.7969Z" fill="#070707" stroke="#070707" stroke-width="0.5"/>
</g>
<defs>
<clipPath id="clip0_0_34">
<rect width="40.111" height="40" fill="white" transform="translate(0.084671)"/>
</clipPath>
</defs>
</svg>
