<svg width="59" height="90" viewBox="0 0 59 90" fill="none" xmlns="http://www.w3.org/2000/svg">
<g clip-path="url(#clip0_0_89)">
<path d="M14.9227 89.6605C22.9467 89.6605 29.4551 83.0208 29.4551 74.8348V60.0091H14.9227C6.89871 60.0091 0.39035 66.6488 0.39035 74.8348C0.39035 83.0208 6.89871 89.6605 14.9227 89.6605Z" fill="#0ACF83"/>
<path d="M0.39035 45.1652C0.39035 36.9793 6.89871 30.3395 14.9227 30.3395H29.4551V60.0091H14.9227C6.89871 59.9909 0.39035 53.3512 0.39035 45.1652Z" fill="#A259FF"/>
<path d="M0.39035 15.4956C0.39035 7.30965 6.89871 0.669922 14.9227 0.669922H29.4551V30.3395H14.9227C6.89871 30.3395 0.39035 23.6816 0.39035 15.4956Z" fill="#F24E1E"/>
<path d="M29.4729 0.669922H44.0053C52.0293 0.669922 58.5376 7.30965 58.5376 15.4956C58.5376 23.6816 52.0293 30.3213 44.0053 30.3213H29.4729V0.669922Z" fill="#FF7262"/>
<path d="M58.5377 45.1652C58.5377 53.3512 52.0293 59.9909 44.0053 59.9909C35.9813 59.9909 29.4729 53.3512 29.4729 45.1652C29.4729 36.9793 35.9813 30.3395 44.0053 30.3395C52.0293 30.3395 58.5377 36.9793 58.5377 45.1652Z" fill="#1ABCFE"/>
</g>
<defs>
<clipPath id="clip0_0_89">
<rect width="58.1473" height="88.9906" fill="white" transform="translate(0.39035 0.669922)"/>
</clipPath>
</defs>
</svg>
