<svg width="90" height="90" viewBox="0 0 90 90" fill="none" xmlns="http://www.w3.org/2000/svg">
<path d="M4.15204 4.42578H85.6742V85.2804H4.15204V4.42578Z" fill="url(#paint0_radial_0_53)"/>
<path d="M4.15198 4.42575H85.6741V85.2803H4.15198V4.42575ZM0.445618 89.0596H89.3626V0.646484H0.445618V89.0596ZM60.4067 36.9311C57.4844 36.9311 56.4865 38.4392 56.4865 39.6929C56.4865 41.0556 57.1458 42.0004 61.0838 44.0717C66.8928 46.9425 68.7104 49.7043 68.7104 53.7379C68.7104 59.7884 64.1843 63.0408 58.0724 63.0408C54.8471 63.0408 52.0674 62.3685 50.4815 61.4237C50.2142 61.3146 50.1786 61.1148 50.1786 60.8241V55.246C50.1786 54.8645 50.3568 54.7554 50.624 54.9371C52.9583 56.4815 55.6312 57.172 58.0724 57.172C60.9947 57.172 62.2242 55.9183 62.2242 54.2285C62.2242 52.8658 61.3689 51.6666 57.6269 49.6861C52.3703 47.1242 50.1786 44.526 50.1786 40.1653C50.1786 35.2958 53.9206 31.244 60.4067 31.244C63.5963 31.244 65.8237 31.7346 67.0354 32.2979C67.3383 32.4796 67.4096 32.7884 67.4096 33.061V38.2393C67.4096 38.5482 67.2314 38.7299 66.8572 38.6209C65.2178 37.567 62.8123 36.9311 60.4067 36.9311ZM28.5462 41.419C29.4016 41.4917 30.0609 41.4917 31.5398 41.4917C35.8699 41.4917 39.9504 39.9472 39.9504 33.9331C39.9504 29.1364 37.0281 26.7198 32.0922 26.7198C30.6133 26.7198 29.2056 26.7925 28.5284 26.8288L28.5462 41.419ZM21.9354 21.3598C21.9354 21.0872 22.4521 20.9055 22.7551 20.9055C25.125 20.7965 28.6532 20.7239 32.3061 20.7239C42.5698 20.7239 46.5791 26.4654 46.5791 33.7878C46.5791 43.3813 39.7544 47.5058 31.3795 47.5058C29.9718 47.5058 29.4907 47.4331 28.4928 47.4331V61.9324C28.4928 62.2413 28.3859 62.3867 28.0473 62.3867H22.3809C22.0779 62.3867 21.9354 62.2776 21.9354 61.9324V21.3598Z" fill="#31C5F0"/>
<defs>
<radialGradient id="paint0_radial_0_53" cx="0" cy="0" r="1" gradientUnits="userSpaceOnUse" gradientTransform="translate(31.0093 22.5656) scale(61.9477 61.1565)">
<stop stop-color="#34364E" stop-opacity="0.98"/>
<stop offset="1" stop-color="#0C0824"/>
</radialGradient>
</defs>
</svg>
