<svg width="167" height="27" viewBox="0 0 167 27" fill="none" xmlns="http://www.w3.org/2000/svg">
<path d="M12.0623 3.86495C12.3618 2.94402 13.6646 2.94402 13.9642 3.86496L15.7102 9.23324C15.8442 9.64512 16.2281 9.92394 16.6612 9.92394H22.3093C23.2783 9.92394 23.6809 11.1641 22.8967 11.7332L18.329 15.0485C17.9782 15.3031 17.8314 15.7548 17.9655 16.1671L19.7106 21.5325C20.0102 22.4537 18.9561 23.2201 18.1722 22.6511L13.6006 19.3331C13.2503 19.0788 12.7761 19.0788 12.4258 19.3331L7.85423 22.6511C7.07032 23.2201 6.01627 22.4537 6.31587 21.5325L8.06099 16.1671C8.19507 15.7548 8.04826 15.3031 7.69742 15.0485L3.12973 11.7332C2.34554 11.1641 2.74816 9.92394 3.71713 9.92394H9.36525C9.79837 9.92394 10.1823 9.64512 10.3162 9.23324L12.0623 3.86495Z" fill="#070707"/>
<path d="M47.0977 3.86495C47.3972 2.94402 48.7001 2.94402 48.9996 3.86496L50.7457 9.23324C50.8796 9.64512 51.2635 9.92394 51.6966 9.92394H57.3447C58.3137 9.92394 58.7163 11.1641 57.9321 11.7332L53.3645 15.0485C53.0136 15.3031 52.8668 15.7548 53.0009 16.1671L54.746 21.5325C55.0456 22.4537 53.9916 23.2201 53.2076 22.6511L48.636 19.3331C48.2857 19.0788 47.8116 19.0788 47.4613 19.3331L42.8897 22.6511C42.1058 23.2201 41.0517 22.4537 41.3513 21.5325L43.0964 16.1671C43.2305 15.7548 43.0837 15.3031 42.7328 15.0485L38.1652 11.7332C37.381 11.1641 37.7836 9.92394 38.7526 9.92394H44.4007C44.8338 9.92394 45.2177 9.64512 45.3516 9.23324L47.0977 3.86495Z" fill="#070707"/>
<path d="M82.1333 3.86495C82.4328 2.94402 83.7357 2.94402 84.0352 3.86496L85.7812 9.23324C85.9152 9.64512 86.2991 9.92394 86.7322 9.92394H92.3803C93.3493 9.92394 93.7519 11.1641 92.9677 11.7332L88.4 15.0485C88.0492 15.3031 87.9024 15.7548 88.0365 16.1671L89.7816 21.5325C90.0812 22.4537 89.0271 23.2201 88.2432 22.6511L83.6716 19.3331C83.3213 19.0788 82.8472 19.0788 82.4968 19.3331L77.9252 22.6511C77.1413 23.2201 76.0873 22.4537 76.3869 21.5325L78.132 16.1671C78.2661 15.7548 78.1193 15.3031 77.7684 15.0485L73.2007 11.7332C72.4166 11.1641 72.8192 9.92394 73.7881 9.92394H79.4363C79.8694 9.92394 80.2533 9.64512 80.3872 9.23324L82.1333 3.86495Z" fill="#070707"/>
<path d="M117.169 3.86495C117.468 2.94402 118.771 2.94402 119.071 3.86496L120.817 9.23324C120.951 9.64512 121.335 9.92394 121.768 9.92394H127.416C128.385 9.92394 128.787 11.1641 128.003 11.7332L123.436 15.0485C123.085 15.3031 122.938 15.7548 123.072 16.1671L124.817 21.5325C125.117 22.4537 124.063 23.2201 123.279 22.6511L118.707 19.3331C118.357 19.0788 117.883 19.0788 117.532 19.3331L112.961 22.6511C112.177 23.2201 111.123 22.4537 111.422 21.5325L113.168 16.1671C113.302 15.7548 113.155 15.3031 112.804 15.0485L108.236 11.7332C107.452 11.1641 107.855 9.92394 108.824 9.92394H114.472C114.905 9.92394 115.289 9.64512 115.423 9.23324L117.169 3.86495Z" fill="#070707"/>
<path d="M152.204 3.86495C152.504 2.94402 153.807 2.94402 154.106 3.86496L155.852 9.23324C155.986 9.64512 156.37 9.92394 156.803 9.92394H162.452C163.42 9.92394 163.823 11.1641 163.039 11.7332L158.471 15.0485C158.12 15.3031 157.974 15.7548 158.108 16.1671L159.853 21.5325C160.152 22.4537 159.098 23.2201 158.314 22.6511L153.743 19.3331C153.393 19.0788 152.918 19.0788 152.568 19.3331L147.996 22.6511C147.213 23.2201 146.158 22.4537 146.458 21.5325L148.203 16.1671C148.337 15.7548 148.19 15.3031 147.84 15.0485L143.272 11.7332C142.488 11.1641 142.89 9.92394 143.859 9.92394H149.507C149.941 9.92394 150.324 9.64512 150.458 9.23324L152.204 3.86495Z" fill="#E5E5E5"/>
</svg>
