<svg width="167" height="27" viewBox="0 0 167 27" fill="none" xmlns="http://www.w3.org/2000/svg">
<path d="M12.5037 3.85982C12.8036 2.93955 14.1055 2.93955 14.4053 3.85982L16.1564 9.23422C16.2906 9.64585 16.6743 9.92443 17.1072 9.92443H22.768C23.7374 9.92443 24.1397 11.1655 23.3547 11.7342L18.7798 15.0489C18.4284 15.3035 18.2813 15.7558 18.4158 16.1684L20.1643 21.5351C20.4644 22.4559 19.4111 23.2229 18.6268 22.6547L14.0413 19.3323C13.6912 19.0787 13.2179 19.0787 12.8678 19.3323L8.28228 22.6547C7.49802 23.2229 6.44473 22.4559 6.74475 21.5351L8.49333 16.1684C8.62778 15.7558 8.4807 15.3035 8.12924 15.0489L3.55437 11.7342C2.76936 11.1655 3.17169 9.92443 4.14108 9.92443H9.80184C10.2348 9.92443 10.6185 9.64585 10.7526 9.23422L12.5037 3.85982Z" fill="#070707"/>
<path d="M47.6009 3.85982C47.9007 2.93955 49.2027 2.93955 49.5025 3.85982L51.2536 9.23422C51.3877 9.64585 51.7715 9.92443 52.2044 9.92443H57.8652C58.8345 9.92443 59.2369 11.1655 58.4519 11.7342L53.877 15.0489C53.5255 15.3035 53.3785 15.7558 53.5129 16.1684L55.2615 21.5351C55.5615 22.4559 54.5082 23.2229 53.724 22.6547L49.1384 19.3323C48.7884 19.0787 48.315 19.0787 47.965 19.3323L43.3794 22.6547C42.5952 23.2229 41.5419 22.4559 41.8419 21.5351L43.5905 16.1684C43.7249 15.7558 43.5779 15.3035 43.2264 15.0489L38.6515 11.7342C37.8665 11.1655 38.2688 9.92443 39.2382 9.92443H44.899C45.3319 9.92443 45.7157 9.64585 45.8498 9.23422L47.6009 3.85982Z" fill="#070707"/>
<path d="M82.6981 3.85982C82.9979 2.93955 84.2998 2.93955 84.5997 3.85982L86.3508 9.23422C86.4849 9.64585 86.8686 9.92443 87.3016 9.92443H92.9623C93.9317 9.92443 94.334 11.1655 93.549 11.7342L88.9742 15.0489C88.6227 15.3035 88.4756 15.7558 88.6101 16.1684L90.3586 21.5351C90.6587 22.4559 89.6054 23.2229 88.8211 22.6547L84.2356 19.3323C83.8855 19.0787 83.4122 19.0787 83.0621 19.3323L78.4766 22.6547C77.6923 23.2229 76.639 22.4559 76.9391 21.5351L78.6876 16.1684C78.8221 15.7558 78.675 15.3035 78.3236 15.0489L73.7487 11.7342C72.9637 11.1655 73.366 9.92443 74.3354 9.92443H79.9962C80.4291 9.92443 80.8128 9.64585 80.947 9.23422L82.6981 3.85982Z" fill="#070707"/>
<path d="M117.795 3.85982C118.095 2.93955 119.397 2.93955 119.697 3.85982L121.448 9.23422C121.582 9.64585 121.966 9.92443 122.399 9.92443H128.059C129.029 9.92443 129.431 11.1655 128.646 11.7342L124.071 15.0489C123.72 15.3035 123.573 15.7558 123.707 16.1684L125.456 21.5351C125.756 22.4559 124.703 23.2229 123.918 22.6547L119.333 19.3323C118.983 19.0787 118.509 19.0787 118.159 19.3323L113.574 22.6547C112.789 23.2229 111.736 22.4559 112.036 21.5351L113.785 16.1684C113.919 15.7558 113.772 15.3035 113.421 15.0489L108.846 11.7342C108.061 11.1655 108.463 9.92443 109.433 9.92443H115.093C115.526 9.92443 115.91 9.64585 116.044 9.23422L117.795 3.85982Z" fill="#E5E5E5"/>
<path d="M152.892 3.85982C153.192 2.93955 154.494 2.93955 154.794 3.85982L156.545 9.23422C156.679 9.64585 157.063 9.92443 157.496 9.92443H163.157C164.126 9.92443 164.528 11.1655 163.743 11.7342L159.168 15.0489C158.817 15.3035 158.67 15.7558 158.804 16.1684L160.553 21.5351C160.853 22.4559 159.8 23.2229 159.015 22.6547L154.43 19.3323C154.08 19.0787 153.606 19.0787 153.256 19.3323L148.671 22.6547C147.887 23.2229 146.833 22.4559 147.133 21.5351L148.882 16.1684C149.016 15.7558 148.869 15.3035 148.518 15.0489L143.943 11.7342C143.158 11.1655 143.56 9.92443 144.53 9.92443H150.19C150.623 9.92443 151.007 9.64585 151.141 9.23422L152.892 3.85982Z" fill="#E5E5E5"/>
</svg>
